<svg xmlns="http://www.w3.org/2000/svg" viewBox="0 11.066911697387695 270.25 49.233089447021484" data-asc="0.88"><g fill="#000000"><g fill="#000000" transform="translate(0, 0)"><path d="M11.75 51.20Q9.60 50.50 8.60 49.10Q7.60 47.70 7.40 45.55Q4.75 44.80 3.10 43.27Q1.45 41.75 0.73 39.77Q0 37.80 0 35.65Q0 33.25 0.93 31.15Q1.85 29.05 3.45 27.43Q5.05 25.80 7.05 24.88Q9.05 23.95 11.20 23.95Q13.15 23.95 14.65 24.52Q16.15 25.10 17.10 26Q18.80 24.25 20.45 22.70Q22.10 21.15 23.50 19.60Q23.20 18.70 22.93 17.65Q22.65 16.60 22.65 15.45Q22.65 13.45 23.85 12.40Q25.05 11.35 26.20 11.35Q27.05 11.35 27.63 11.85Q28.20 12.35 28.20 13.40Q28.20 14.45 27.50 15.85Q26.70 17.50 25.40 19Q25.80 19.90 26.45 21.38Q27.10 22.85 27.77 24.57Q28.45 26.30 28.90 28.02Q29.35 29.75 29.35 31.20Q29.35 34.60 27.88 37.38Q26.40 40.15 23.90 42.13Q21.40 44.10 18.27 45.15Q15.15 46.20 11.90 46.20Q10.25 46.20 8.65 45.90Q8.95 47.90 9.93 48.98Q10.90 50.05 11.85 50.35Q12.60 50.55 12.60 50.95Q12.60 51.45 11.75 51.20M25 17.80Q25.90 16.60 26.55 15.30Q26.90 14.60 27.02 14.07Q27.15 13.55 27.15 13.20Q27.15 12.30 26.55 12.30Q26.05 12.30 25.45 13.10Q24.60 14.25 24.60 15.85Q24.60 16.85 25 17.80M11.40 45.35Q14.25 45.35 16.95 43.95Q19.65 42.55 21.70 40.30Q23.75 38.05 24.55 35.55Q25.45 32.85 25.45 29.80Q25.45 27.60 25.02 25.30Q24.60 23 23.85 20.75Q22.55 22.15 21.02 23.60Q19.50 25.05 17.90 26.70Q19 27.80 19.50 29.05Q20 30.30 20 31.60Q20 33.40 19.10 35.02Q18.20 36.65 16.57 37.65Q14.95 38.65 12.75 38.65Q12.10 38.65 11.45 38.55Q10.80 38.45 10.10 38.25Q9.50 39.65 9.05 41.55Q8.60 43.45 8.55 44.95Q9.25 45.15 9.98 45.25Q10.70 45.35 11.40 45.35M7.40 44.60Q7.50 42.95 7.98 41.15Q8.45 39.35 9.05 37.80Q8.10 37.25 7.60 36.40Q7.10 35.55 7.10 34.70Q7.10 33.05 8.45 32.25Q8.70 32.10 8.95 32.10Q9.35 32.10 9.35 32.40Q9.35 32.65 9 33Q8.25 33.65 8.25 34.60Q8.25 35.90 9.50 36.70Q10.80 33.75 12.73 31.17Q14.65 28.60 16.50 26.60Q15.45 25.80 14.38 25.52Q13.30 25.25 12.25 25.25Q10.45 25.25 8.83 26.20Q7.20 27.15 5.90 28.70Q4.60 30.25 3.80 32.08Q3 33.90 2.85 35.60Q2.85 35.80 2.83 36.02Q2.80 36.25 2.80 36.50Q2.80 38.10 3.25 39.73Q3.70 41.35 4.73 42.65Q5.75 43.95 7.40 44.60M11.95 37.45Q13.65 37.45 15.13 36.48Q16.60 35.50 17.55 33.95Q18.50 32.40 18.50 30.70Q18.50 29.85 18.22 29Q17.95 28.15 17.30 27.35Q15.50 29.30 13.65 31.80Q11.80 34.30 10.50 37.25Q11.10 37.45 11.95 37.45ZM34.80 44.50Q33.15 44.50 32.05 43.48Q30.95 42.45 30.95 40.80Q30.95 39.95 31.25 39.05Q32.25 36.30 33.60 33.33Q34.95 30.35 36.50 27.50L34.80 27.50Q33.70 27.50 33.70 27.05Q33.70 26.80 34.02 26.63Q34.35 26.45 34.80 26.45Q35.30 26.40 35.85 26.43Q36.40 26.45 37.05 26.45L41.35 18.55Q41.55 18.15 42.28 18.02Q43 17.90 43.35 17.90Q43.90 17.90 44.43 18.15Q44.95 18.40 44.75 18.70Q44.60 18.90 44.13 19.80Q43.65 20.70 43 21.90Q42.35 23.10 41.68 24.32Q41 25.55 40.50 26.45L42.65 26.45Q43.90 26.45 45.33 26.43Q46.75 26.40 47.90 26.30Q49.05 26.20 49.40 26.05Q49.70 25.90 50 25.90Q50.50 25.90 50.50 26.30Q50.50 26.75 49.80 27.15Q49.30 27.40 47.85 27.47Q46.40 27.55 44.50 27.55L42.80 27.55Q42.15 27.55 41.40 27.52Q40.65 27.50 39.95 27.50Q38.30 30.55 36.58 33.52Q34.85 36.50 33.80 39.85Q33.50 40.80 33.50 41.55Q33.50 43.35 35.10 43.35Q35.90 43.35 37.10 42.75Q39.30 41.65 41.40 39.60Q43.50 37.55 45.05 35.35Q45.30 34.95 45.60 34.95Q45.80 34.95 45.80 35.20Q45.80 35.45 45.60 35.80Q44 38.20 42.08 40.20Q40.15 42.20 37.70 43.65Q36.15 44.50 34.80 44.50ZM56.15 44.30Q54.75 44.30 54.15 43.20Q53.55 42.10 53.55 40.65Q53.55 40.40 53.55 40.10Q53.55 39.80 53.60 39.55Q52.65 41.25 51.15 42.75Q49.65 44.25 47.45 44.25Q45.95 44.25 44.93 43.15Q43.90 42.05 43.90 39.80Q43.90 38 44.90 35.30Q45.45 34 46.50 32.65Q47.55 31.30 49.05 30.38Q50.55 29.45 52.40 29.45Q54.40 29.45 55.20 30.20Q56.00 30.95 56.20 31.35Q56.20 31.40 56.23 31.42Q56.25 31.45 56.25 31.50Q56.25 31.95 55.70 31.95Q55.45 31.95 55.20 31.70Q54.60 31 54.00 30.70Q53.40 30.40 52.85 30.40Q51.70 30.40 50.70 31.38Q49.70 32.35 48.93 33.67Q48.15 35 47.65 36.15Q46.95 37.75 46.63 39.02Q46.30 40.30 46.30 41.15Q46.30 43.40 47.85 43.40Q48.95 43.40 50.45 42Q51.95 40.60 53.30 37.85Q54.50 35.45 55.45 33.58Q56.40 31.70 57.10 30.30Q57.25 29.95 57.85 29.77Q58.45 29.60 59.05 29.60Q59.60 29.60 60.05 29.77Q60.50 29.95 60.50 30.35Q60.50 30.55 60.25 30.90Q59.65 31.75 58.73 33.40Q57.80 35.05 57.03 36.85Q56.25 38.65 56.00 40.05Q55.85 40.80 55.85 41.40Q55.85 43 56.95 43Q57.30 43 58.05 42.75Q59.45 42.15 60.93 40.88Q62.40 39.60 63.73 38.05Q65.05 36.50 65.95 35.15Q66.40 34.50 66.65 34.50Q66.80 34.50 66.80 34.75Q66.80 35.15 66.40 35.75Q65.50 37.10 64.13 38.75Q62.75 40.40 61.18 41.80Q59.60 43.20 58.10 43.85Q57.00 44.30 56.15 44.30ZM63.10 44.80Q64.35 42.05 65.60 39.15Q66.85 36.25 67.90 33.75Q67.25 34.70 66.58 35.65Q65.90 36.60 65.10 37.50Q64.65 38 64.30 38Q64.10 38 64.10 37.80Q64.10 37.65 64.35 37.35Q66.10 35.10 67.25 33.17Q68.40 31.25 69 30.30Q69.40 29.60 70.03 29.52Q70.65 29.45 71.10 29.45Q71.30 29.45 71.80 29.48Q72.30 29.50 72.80 29.50Q72.60 29.90 72.03 30.90Q71.45 31.90 70.83 33Q70.20 34.10 69.80 35Q70.50 34.15 71.78 32.58Q73.05 31 74.75 29.95Q76.35 29 77.65 29Q79.80 29 79.80 31.25Q79.80 31.85 79.60 32.60Q79.40 33.35 78.95 34.20Q78 36.05 76.93 38.08Q75.85 40.10 75.35 41.85Q75.30 42.05 75.28 42.20Q75.25 42.35 75.25 42.50Q75.25 43.40 76.15 43.40Q76.65 43.40 77.30 43.10Q78.70 42.50 80.30 41.20Q81.90 39.90 83.33 38.35Q84.75 36.80 85.60 35.50Q85.90 35 86.20 35Q86.45 35 86.45 35.25Q86.45 35.55 86.25 35.80Q85.35 37.15 83.93 38.83Q82.50 40.50 80.88 41.92Q79.25 43.35 77.75 44Q76.70 44.40 75.75 44.40Q74.45 44.40 73.48 43.73Q72.50 43.05 72.50 41.70Q72.50 41.50 72.53 41.27Q72.55 41.05 72.60 40.85Q73 39 74.20 37.02Q75.40 35.05 76.40 33.20Q76.95 32.10 76.95 31.50Q76.95 30.70 76.15 30.70Q75.80 30.70 75.35 30.85Q74.90 31 74.40 31.40Q73.35 32.10 72.20 33.52Q71.05 34.95 69.85 37Q68.75 38.95 67.80 40.90Q66.85 42.85 66.25 44.15Q65.50 44.15 64.53 44.40Q63.55 44.65 63.10 44.80ZM98.10 44.35Q96.40 44.35 95.33 43.13Q94.25 41.90 94.25 40.25Q94.25 40 94.28 39.75Q94.30 39.50 94.35 39.30Q93.90 40.05 93.18 41.15Q92.45 42.25 91.55 43.15Q90.65 44.05 89.55 44.20Q89.35 44.25 89.15 44.25Q88.95 44.25 88.80 44.25Q86.75 44.25 85.78 42.73Q84.80 41.20 84.80 39.05Q84.80 37.40 85.33 35.67Q85.85 33.95 86.85 32.48Q87.85 31 89.25 30.10Q90.65 29.20 92.45 29.20Q93.05 29.20 93.95 29.42Q94.85 29.65 95.65 29.95Q96.45 30.25 96.75 30.55Q97.15 29.65 97.70 27.85Q98.25 26.05 99.05 24.20Q99.55 23.05 100.23 21.65Q100.90 20.25 101.80 18.92Q102.70 17.60 103.85 16.75Q105.00 15.90 106.50 15.90Q107.60 15.90 108.35 16.50Q109.10 17.10 109.10 18.35Q109.10 19.45 108.35 21.05Q107.25 23.40 105.10 26.75Q102.95 30.10 98.70 34.10Q98.50 34.65 98.10 35.77Q97.70 36.90 97.38 38.25Q97.05 39.60 97.05 40.75Q97.05 41.75 97.38 42.35Q97.70 42.95 98.40 42.95Q98.65 42.95 98.90 42.90Q99.15 42.85 99.50 42.70Q100.90 42.10 102.43 40.92Q103.95 39.75 105.38 38.20Q106.80 36.65 107.75 35.10Q107.95 34.75 108.25 34.75Q108.50 34.75 108.50 35.10Q108.50 35.30 108.35 35.60Q107.50 36.95 106.15 38.65Q104.80 40.35 103.28 41.77Q101.75 43.20 100.25 43.85Q99.20 44.35 98.10 44.35M99.40 31.95Q101.30 30 102.88 27.82Q104.45 25.65 105.65 23.57Q106.85 21.50 107.50 20Q107.75 19.55 107.83 19.15Q107.90 18.75 107.90 18.45Q107.90 17.20 106.90 17.20Q106.40 17.20 105.73 17.70Q105.05 18.20 104.45 19.35Q102.90 22.15 101.80 25.43Q100.70 28.70 99.40 31.95M89.55 43.05Q91.05 42.70 92.25 40.92Q93.45 39.15 94.45 36.65Q95.45 34.15 96.35 31.70Q96.10 31.40 95.68 31.05Q95.25 30.70 94.50 30.50Q94.05 30.35 93.60 30.35Q92.35 30.35 91.25 31.45Q90.15 32.55 89.35 34.20Q88.55 35.85 88.10 37.58Q87.65 39.30 87.65 40.50Q87.65 43.35 89.55 43.05ZM110.50 44.30Q108.95 44.30 108.33 43.38Q107.70 42.45 107.70 41.10Q107.70 39.80 108.08 38.38Q108.45 36.95 108.95 35.70Q109.45 34.45 109.75 33.75Q109.10 34.70 108.43 35.65Q107.75 36.60 106.95 37.50Q106.50 38 106.10 38Q105.90 38 105.90 37.80Q105.90 37.60 106.15 37.30Q107.90 35.05 109.08 33.15Q110.25 31.25 110.85 30.30Q111.25 29.60 112.15 29.45Q113.05 29.30 113.70 29.35Q113.90 29.35 114.15 29.38Q114.40 29.40 114.90 29.40Q113.85 31.20 113.05 33.30Q112.25 35.40 111.35 37.30Q110.60 38.85 110.25 40Q109.90 41.15 109.90 41.90Q109.90 43.25 110.85 43.25Q111.60 43.25 112.75 42.02Q113.90 40.80 115.10 38.95Q116.30 37.10 117.10 35.20Q117.70 33.90 118.28 32.55Q118.85 31.20 119.20 30.30Q119.40 29.95 120.18 29.77Q120.95 29.60 121.93 29.55Q122.90 29.50 123.70 29.50Q123.05 30.10 122.23 31.52Q121.40 32.95 120.63 34.75Q119.85 36.55 119.35 38.30Q118.85 40.05 118.85 41.30Q118.85 41.50 118.88 41.70Q118.90 41.90 118.95 42.10Q119.20 43 120.15 43Q120.40 43 120.68 42.95Q120.95 42.90 121.30 42.75Q122.70 42.15 124.20 40.95Q125.70 39.75 127.05 38.25Q128.40 36.75 129.30 35.40Q129.75 34.75 130.05 34.75Q130.20 34.75 130.20 34.95Q130.20 35.35 129.80 35.95Q128.90 37.30 127.58 38.90Q126.25 40.50 124.73 41.85Q123.20 43.20 121.70 43.85Q120.60 44.30 119.65 44.30Q117.75 44.30 116.78 42.77Q115.80 41.25 116.00 39.50Q114.85 41.45 113.48 42.88Q112.10 44.30 110.50 44.30ZM115.65 60.30Q113.85 60.30 112.83 59.48Q111.80 58.65 111.38 57.40Q110.95 56.15 110.95 54.95Q110.95 53.95 111.18 53.13Q111.40 52.30 111.65 51.95Q111.90 51.70 112.05 51.70Q112.50 51.70 112.50 52.30Q112.50 52.60 112.30 52.85Q111.90 53.35 111.90 54.65Q111.90 55.60 112.25 56.73Q112.60 57.85 113.45 58.65Q114.30 59.45 115.80 59.45Q117.15 59.45 118.60 58.08Q120.05 56.70 121.43 54.40Q122.80 52.10 123.90 49.25Q124.75 47.10 125.45 45.02Q126.15 42.95 126.95 40.80Q127.80 38.65 128.78 36.45Q129.75 34.25 131.10 31.95Q132.05 30.30 133.18 28.67Q134.30 27.05 135.63 25.97Q136.95 24.90 138.40 24.90Q139.15 24.90 139.50 25.13Q139.85 25.35 139.85 25.60Q139.85 26.05 139.15 26.05L138.30 26Q137.50 26 136.60 26.93Q135.70 27.85 134.98 29Q134.25 30.15 133.85 30.80Q134.85 30.15 136.18 29.73Q137.50 29.30 138.85 29.30Q141.20 29.30 142.13 30.38Q143.05 31.45 143.05 33.05Q143.05 34.10 142.75 35.25Q142.45 36.40 141.95 37.45Q141.00 39.50 139.43 41.30Q137.85 43.10 135.85 43.85Q137.80 43.90 140.03 42.70Q142.25 41.50 144.33 39.52Q146.40 37.55 147.85 35.40Q148.10 35 148.40 35Q148.70 35 148.70 35.35Q148.70 35.50 148.55 35.75Q145.75 39.85 142.90 42.10Q140.05 44.35 137.30 44.85Q136.85 44.90 136.20 44.98Q135.55 45.05 134.75 45.05Q133.05 45.05 131.35 44.60Q129.65 44.15 129.10 42.85Q128.80 44.10 128.03 46.67Q127.25 49.25 126.10 52.05Q125.35 53.95 123.83 55.85Q122.30 57.75 120.23 59.02Q118.15 60.30 115.65 60.30M132.10 43.45Q133.30 43.45 134.60 42.40Q135.90 41.35 137.03 39.80Q138.15 38.25 138.95 36.60Q139.75 34.95 139.95 33.75Q140.10 33 140.10 32.45Q140.10 30.20 138.45 30.20Q137.80 30.20 136.90 30.70Q135.30 31.65 133.48 33.85Q131.65 36.05 130.65 38.65Q130.35 39.40 130.23 40Q130.10 40.60 130.10 41.15Q130.10 42.30 130.70 42.88Q131.30 43.45 132.10 43.45ZM149.70 45.90Q147.95 45.90 147.10 45.15Q146.25 44.40 146.25 43.45Q146.25 42.40 147.23 41.50Q148.20 40.60 150.10 40.60Q150.50 40.60 150.95 40.65Q151.40 40.70 151.90 40.80Q152.85 41 153.68 41.48Q154.50 41.95 155.50 42.35Q157.50 40.45 159.25 37.80Q161 35.15 162.55 32.30Q164.10 29.45 165.40 27.10Q168.25 21.75 170.88 18.47Q173.50 15.20 175.50 13.50Q174.50 13.20 173.15 13.05Q171.80 12.90 170.50 12.90Q165.95 12.90 162.43 14.40Q158.90 15.90 156.50 18.22Q154.10 20.55 152.85 23.13Q151.60 25.70 151.60 27.85Q151.60 29.50 152.35 30.67Q153.10 31.85 154.65 32.20Q154.80 32.25 155.20 32.25Q156.20 32.25 157.73 31.70Q159.25 31.15 160.75 30.05Q162.25 28.95 163.15 27.30Q163.75 26.20 164.03 25.22Q164.30 24.25 164.30 23.45Q164.30 22.15 163.68 21.40Q163.05 20.65 162 20.65Q161.30 20.65 160.35 21.05Q159.40 21.45 158.63 22.20Q157.85 22.95 157.50 23.95Q157.45 24.10 157.43 24.22Q157.40 24.35 157.40 24.45Q157.40 25 157.95 25Q158.30 25 158.50 24.85Q158.95 24.85 158.95 25.30Q158.95 25.50 158.70 25.72Q158.45 25.95 157.90 25.95Q157.25 25.95 156.83 25.50Q156.40 25.05 156.40 24.40Q156.40 24.25 156.43 24.10Q156.45 23.95 156.50 23.75Q157.05 22.15 158.65 20.90Q160.25 19.65 162.25 19.65Q163.85 19.65 164.58 20.63Q165.30 21.60 165.30 23.05Q165.30 24.55 164.55 26.32Q163.80 28.10 162.38 29.70Q160.95 31.30 158.95 32.33Q156.95 33.35 154.40 33.35Q151.95 33.35 150.53 31.92Q149.10 30.50 149.10 28.05Q149.10 26.75 149.58 25.18Q150.05 23.60 151.10 21.90Q152.65 19.35 154.95 17.50Q157.25 15.65 159.93 14.42Q162.60 13.20 165.30 12.63Q168 12.05 170.40 12.05Q173.75 12.05 176.45 12.80Q177.60 12 179.38 11.48Q181.15 10.95 182.60 11.10Q182.85 11.15 183.20 11.23Q183.55 11.30 183.55 11.65Q183.55 12.15 182.95 12.15Q182.65 12.10 182.38 12.07Q182.10 12.05 181.85 12.05Q181.65 12.05 181.50 12.05Q181.35 12.05 181.15 12.10Q180.65 12.20 179.98 12.50Q179.30 12.80 178.45 13.50Q180.20 14.25 181.28 15.60Q182.35 16.95 182.35 19.15Q182.35 21.70 180.83 23.42Q179.30 25.15 177 26.13Q174.70 27.10 172.35 27.50Q174 27.85 175.53 28.57Q177.05 29.30 178 30.60Q178.95 31.90 178.95 34Q178.95 36.25 177.70 38.25Q176.45 40.25 174.33 41.80Q172.20 43.35 169.50 44.23Q166.80 45.10 163.85 45.10Q162.80 45.10 161.75 44.98Q160.70 44.85 159.65 44.60Q158.90 44.40 158.25 44.15Q157.60 43.90 157 43.65Q156.10 44.15 154.78 44.67Q153.45 45.20 152.08 45.55Q150.70 45.90 149.70 45.90M169.05 26.95Q171.65 26.65 173.95 25.93Q176.25 25.20 177.70 23.60Q179.15 22 179.15 19.20Q179.15 17.45 178.85 16.30Q178.55 15.15 177.30 14.50Q176.35 15.45 175.15 17.02Q173.95 18.60 172.78 20.40Q171.60 22.20 170.60 23.92Q169.60 25.65 169.05 26.95M162.45 44Q165.10 44 167.83 42.95Q170.55 41.90 172.63 39.80Q174.70 37.70 175.30 34.55Q175.45 33.80 175.45 33.25Q175.45 31.40 174.50 30.35Q173.55 29.30 172 28.75Q170.45 28.20 168.65 27.90Q167.75 29.75 166.80 31.75Q165.85 33.75 164.65 35.75Q163.45 37.70 161.78 39.65Q160.10 41.60 157.95 43.10Q158.35 43.25 158.78 43.40Q159.20 43.55 159.65 43.65Q160.30 43.80 161 43.90Q161.70 44 162.45 44M150.05 44.85Q151.35 44.85 152.53 44.35Q153.70 43.85 154.85 42.90Q153.95 42.50 153.10 42.25Q152.25 42 151.25 42Q150.65 42 149.90 42.15Q149.15 42.35 148.63 42.85Q148.10 43.35 148.10 43.85Q148.10 44.25 148.55 44.55Q149 44.85 150.05 44.85ZM185.55 44.30Q184 44.30 183.38 43.38Q182.75 42.45 182.75 41.10Q182.75 39.80 183.13 38.38Q183.50 36.95 184 35.70Q184.50 34.45 184.80 33.75Q184.15 34.70 183.48 35.65Q182.80 36.60 182 37.50Q181.55 38 181.15 38Q180.95 38 180.95 37.80Q180.95 37.60 181.20 37.30Q182.95 35.05 184.13 33.15Q185.30 31.25 185.90 30.30Q186.30 29.60 187.20 29.45Q188.10 29.30 188.75 29.35Q188.95 29.35 189.20 29.38Q189.45 29.40 189.95 29.40Q188.90 31.20 188.10 33.30Q187.30 35.40 186.40 37.30Q185.65 38.85 185.30 40Q184.95 41.15 184.95 41.90Q184.95 43.25 185.90 43.25Q186.65 43.25 187.80 42.02Q188.95 40.80 190.15 38.95Q191.35 37.10 192.15 35.20Q192.75 33.90 193.33 32.55Q193.90 31.20 194.25 30.30Q194.45 29.95 195.23 29.77Q196 29.60 196.98 29.55Q197.95 29.50 198.75 29.50Q198.10 30.10 197.28 31.52Q196.45 32.95 195.68 34.75Q194.90 36.55 194.40 38.30Q193.90 40.05 193.90 41.30Q193.90 41.50 193.93 41.70Q193.95 41.90 194 42.10Q194.25 43 195.20 43Q195.45 43 195.73 42.95Q196 42.90 196.35 42.75Q197.75 42.15 199.25 40.95Q200.75 39.75 202.10 38.25Q203.45 36.75 204.35 35.40Q204.80 34.75 205.10 34.75Q205.25 34.75 205.25 34.95Q205.25 35.35 204.85 35.95Q203.95 37.30 202.63 38.90Q201.30 40.50 199.78 41.85Q198.25 43.20 196.75 43.85Q195.65 44.30 194.70 44.30Q192.80 44.30 191.83 42.77Q190.85 41.25 191.05 39.50Q189.90 41.45 188.53 42.88Q187.15 44.30 185.55 44.30ZM216.75 44.35Q215.05 44.35 213.98 43.13Q212.90 41.90 212.90 40.25Q212.90 40 212.93 39.75Q212.95 39.50 213.00 39.30Q212.55 40.05 211.83 41.15Q211.10 42.25 210.20 43.15Q209.30 44.05 208.20 44.20Q208.00 44.25 207.80 44.25Q207.60 44.25 207.45 44.25Q205.40 44.25 204.43 42.73Q203.45 41.20 203.45 39.05Q203.45 37.40 203.98 35.67Q204.50 33.95 205.50 32.48Q206.50 31 207.90 30.10Q209.30 29.20 211.10 29.20Q211.70 29.20 212.60 29.42Q213.50 29.65 214.30 29.95Q215.10 30.25 215.40 30.55Q215.80 29.65 216.35 27.85Q216.90 26.05 217.70 24.20Q218.20 23.05 218.88 21.65Q219.55 20.25 220.45 18.92Q221.35 17.60 222.50 16.75Q223.65 15.90 225.15 15.90Q226.25 15.90 227.00 16.50Q227.75 17.10 227.75 18.35Q227.75 19.45 227.00 21.05Q225.90 23.40 223.75 26.75Q221.60 30.10 217.35 34.10Q217.15 34.65 216.75 35.77Q216.35 36.90 216.03 38.25Q215.70 39.60 215.70 40.75Q215.70 41.75 216.03 42.35Q216.35 42.95 217.05 42.95Q217.30 42.95 217.55 42.90Q217.80 42.85 218.15 42.70Q219.55 42.10 221.08 40.92Q222.60 39.75 224.03 38.20Q225.45 36.65 226.40 35.10Q226.60 34.75 226.90 34.75Q227.15 34.75 227.15 35.10Q227.15 35.30 227.00 35.60Q226.15 36.95 224.80 38.65Q223.45 40.35 221.93 41.77Q220.40 43.20 218.90 43.85Q217.85 44.35 216.75 44.35M218.05 31.95Q219.95 30 221.53 27.82Q223.10 25.65 224.30 23.57Q225.50 21.50 226.15 20Q226.40 19.55 226.48 19.15Q226.55 18.75 226.55 18.45Q226.55 17.20 225.55 17.20Q225.05 17.20 224.38 17.70Q223.70 18.20 223.10 19.35Q221.55 22.15 220.45 25.43Q219.35 28.70 218.05 31.95M208.20 43.05Q209.70 42.70 210.90 40.92Q212.10 39.15 213.10 36.65Q214.10 34.15 215.00 31.70Q214.75 31.40 214.33 31.05Q213.90 30.70 213.15 30.50Q212.70 30.35 212.25 30.35Q211.00 30.35 209.90 31.45Q208.80 32.55 208.00 34.20Q207.20 35.85 206.75 37.58Q206.30 39.30 206.30 40.50Q206.30 43.35 208.20 43.05ZM238.70 44.35Q237.00 44.35 235.93 43.13Q234.85 41.90 234.85 40.25Q234.85 40 234.88 39.75Q234.90 39.50 234.95 39.30Q234.50 40.05 233.78 41.15Q233.05 42.25 232.15 43.15Q231.25 44.05 230.15 44.20Q229.95 44.25 229.75 44.25Q229.55 44.25 229.40 44.25Q227.35 44.25 226.38 42.73Q225.40 41.20 225.40 39.05Q225.40 37.40 225.93 35.67Q226.45 33.95 227.45 32.48Q228.45 31 229.85 30.10Q231.25 29.20 233.05 29.20Q233.65 29.20 234.55 29.42Q235.45 29.65 236.25 29.95Q237.05 30.25 237.35 30.55Q237.75 29.65 238.30 27.85Q238.85 26.05 239.65 24.20Q240.15 23.05 240.83 21.65Q241.50 20.25 242.40 18.92Q243.30 17.60 244.45 16.75Q245.60 15.90 247.10 15.90Q248.20 15.90 248.95 16.50Q249.70 17.10 249.70 18.35Q249.70 19.45 248.95 21.05Q247.85 23.40 245.70 26.75Q243.55 30.10 239.30 34.10Q239.10 34.65 238.70 35.77Q238.30 36.90 237.98 38.25Q237.65 39.60 237.65 40.75Q237.65 41.75 237.98 42.35Q238.30 42.95 239.00 42.95Q239.25 42.95 239.50 42.90Q239.75 42.85 240.10 42.70Q241.50 42.10 243.03 40.92Q244.55 39.75 245.98 38.20Q247.40 36.65 248.35 35.10Q248.55 34.75 248.85 34.75Q249.10 34.75 249.10 35.10Q249.10 35.30 248.95 35.60Q248.10 36.95 246.75 38.65Q245.40 40.35 243.88 41.77Q242.35 43.20 240.85 43.85Q239.80 44.35 238.70 44.35M240.00 31.95Q241.90 30 243.48 27.82Q245.05 25.65 246.25 23.57Q247.45 21.50 248.10 20Q248.35 19.55 248.43 19.15Q248.50 18.75 248.50 18.45Q248.50 17.20 247.50 17.20Q247.00 17.20 246.33 17.70Q245.65 18.20 245.05 19.35Q243.50 22.15 242.40 25.43Q241.30 28.70 240.00 31.95M230.15 43.05Q231.65 42.70 232.85 40.92Q234.05 39.15 235.05 36.65Q236.05 34.15 236.95 31.70Q236.70 31.40 236.28 31.05Q235.85 30.70 235.10 30.50Q234.65 30.35 234.20 30.35Q232.95 30.35 231.85 31.45Q230.75 32.55 229.95 34.20Q229.15 35.85 228.70 37.58Q228.25 39.30 228.25 40.50Q228.25 43.35 230.15 43.05ZM246.45 59.90Q245.10 59.90 244.15 59.30Q243.20 58.70 243.20 57.50Q243.20 56.80 243.60 55.92Q244.00 55.05 244.90 53.95Q246.30 52.30 248.33 50.92Q250.35 49.55 252.55 48.30Q254.75 47.05 256.60 45.95Q256.85 44.50 257.20 43.15Q257.55 41.80 257.90 40.50Q256.90 42.15 255.48 43.45Q254.05 44.75 252.35 44.75Q250.85 44.75 249.78 43.52Q248.70 42.30 248.70 40.15Q248.70 39.55 248.80 38.88Q248.90 38.20 249.10 37.50Q249.35 36.70 249.70 35.63Q250.05 34.55 250.35 33.75Q249.70 34.70 249.03 35.60Q248.35 36.50 247.65 37.35Q247.15 38 246.75 38Q246.55 38 246.55 37.80Q246.55 37.60 246.80 37.30Q248.55 35.05 249.70 33.15Q250.85 31.25 251.45 30.30Q251.75 29.75 252.33 29.60Q252.90 29.45 253.55 29.45Q254.00 29.45 254.43 29.48Q254.85 29.50 255.20 29.50Q254.95 30.30 254.43 31.60Q253.90 32.90 253.30 34.35Q252.70 35.80 252.25 37.10Q251.80 38.40 251.55 39.55Q251.30 40.70 251.30 41.60Q251.30 43.70 252.65 43.70Q253.50 43.70 254.68 42.63Q255.85 41.55 256.98 39.80Q258.10 38.05 258.80 36.15Q258.90 35.95 259.15 35.20Q259.40 34.45 259.70 33.52Q260 32.60 260.25 31.82Q260.50 31.05 260.55 30.85Q261.10 29.85 262.33 29.67Q263.55 29.50 264.70 29.50Q264.20 30.25 263.58 31.90Q262.95 33.55 262.30 35.73Q261.65 37.90 261.03 40.25Q260.40 42.60 259.90 44.80Q261.15 44.10 262.60 43.08Q264.05 42.05 265.80 40.27Q267.55 38.50 269.55 35.65Q269.70 35.45 269.95 35.45Q270.25 35.45 270.25 35.75Q270.25 35.90 270.10 36.20Q268.05 39.30 265.35 41.92Q262.65 44.55 259.55 46.60Q258.90 49.50 257.65 51.65Q256.40 53.80 254.88 55.33Q253.35 56.85 251.85 57.80Q250.35 58.75 249.20 59.30Q247.85 59.90 246.45 59.90M245.80 58.65Q247.05 58.65 248.15 57.95Q250.65 56.45 252.68 53.95Q254.70 51.45 256.20 47.65Q254.55 48.55 252.55 49.65Q250.55 50.75 248.73 52Q246.90 53.25 245.70 54.75Q244.90 55.70 244.58 56.38Q244.25 57.05 244.25 57.50Q244.25 58.10 244.70 58.38Q245.15 58.65 245.80 58.65Z"/></g></g></svg>